<svg width="32" height="32" viewBox="0 0 32 32" fill="none" xmlns="http://www.w3.org/2000/svg">
  <!-- Background circle -->
  <circle cx="16" cy="16" r="15" fill="#2E3192" stroke="#4F46E5" stroke-width="2"/>
  
  <!-- MCP interconnected nodes representing context layers -->
  <!-- Central node (represents AI model) -->
  <circle cx="16" cy="16" r="3" fill="#FFD700" stroke="#FFA500" stroke-width="1"/>
  
  <!-- Context nodes (represent different context types) -->
  <circle cx="8" cy="8" r="2.5" fill="#FF6B6B" stroke="#FF4757" stroke-width="1"/>
  <circle cx="24" cy="8" r="2.5" fill="#4ECDC4" stroke="#00CEC9" stroke-width="1"/>
  <circle cx="8" cy="24" r="2.5" fill="#95E1D3" stroke="#00B894" stroke-width="1"/>
  <circle cx="24" cy="24" r="2.5" fill="#A29BFE" stroke="#6C5CE7" stroke-width="1"/>
  
  <!-- Connection lines (represent protocol connections) -->
  <line x1="8" y1="8" x2="16" y2="16" stroke="#E1E5E9" stroke-width="1.5" opacity="0.8"/>
  <line x1="24" y1="8" x2="16" y2="16" stroke="#E1E5E9" stroke-width="1.5" opacity="0.8"/>
  <line x1="8" y1="24" x2="16" y2="16" stroke="#E1E5E9" stroke-width="1.5" opacity="0.8"/>
  <line x1="24" y1="24" x2="16" y2="16" stroke="#E1E5E9" stroke-width="1.5" opacity="0.8"/>
  
  <!-- Small accent dots for additional context layers -->
  <circle cx="4" cy="16" r="1.5" fill="#DDA0DD" opacity="0.7"/>
  <circle cx="28" cy="16" r="1.5" fill="#DDA0DD" opacity="0.7"/>
  <circle cx="16" cy="4" r="1.5" fill="#DDA0DD" opacity="0.7"/>
  <circle cx="16" cy="28" r="1.5" fill="#DDA0DD" opacity="0.7"/>
  
  <!-- Additional connection lines for small dots -->
  <line x1="4" y1="16" x2="13" y2="16" stroke="#E1E5E9" stroke-width="1" opacity="0.4"/>
  <line x1="28" y1="16" x2="19" y2="16" stroke="#E1E5E9" stroke-width="1" opacity="0.4"/>
  <line x1="16" y1="4" x2="16" y2="13" stroke="#E1E5E9" stroke-width="1" opacity="0.4"/>
  <line x1="16" y1="28" x2="16" y2="19" stroke="#E1E5E9" stroke-width="1" opacity="0.4"/>
</svg>

